<?xml version="1.0" ?><!DOCTYPE svg  PUBLIC '-//W3C//DTD SVG 1.1//EN'  'http://www.w3.org/Graphics/SVG/1.1/DTD/svg11.dtd'><svg enable-background="new 0 0 234.179 241.667" height="241.667" id="Layer_1" overflow="visible" version="1.1" viewBox="0 0 234.179 241.667" width="234.179" xml:space="preserve" xmlns="http://www.w3.org/2000/svg" xmlns:xlink="http://www.w3.org/1999/xlink"><g><path d="M234.179,72.224c0,8.25-6.75,15-15,15H15c-8.25,0-15-6.75-15-15v-0.142c0-8.25,6.75-15,15-15h204.179c8.25,0,15,6.75,15,15   V72.224z"/></g><path d="M39.33,41.084c0-13.989,11.34-25.329,25.329-25.329c13.989,0,25.329,11.34,25.329,25.329"/><path d="M159.664,41.084c0-8.466,6.863-15.329,15.329-15.329s15.329,6.863,15.329,15.329"/><circle cx="125.33" cy="10.667" r="10.667"/><path d="M8.667,187.75c0,0,1,41,28,49l13.5-13.5C50.167,223.25,25.667,212.75,8.667,187.75z"/><path d="M219.134,202.688c0,0-0.592,24.266-16.571,29l-7.99-7.99C194.573,223.698,209.073,217.484,219.134,202.688z"/><path d="M217.458,74.085H17.495c-6.755,14.3-10.539,24.28-10.539,41.146c0,38.276,17.03,72.006,46.307,91.841  c0,0,22.436,15.953,41.007,16.822c3.341-14.227,10.454-36.201,24.397-50.145c0,0,21.024,23.285,33.794,47.069  c2.162-0.644,4.289-1.341,6.373-2.102l26.07-13.922c27.303-20.08,43.092-52.714,43.092-89.564  C227.997,98.365,224.213,88.385,217.458,74.085z"/><path d="M105.667,240.75c0,0,2.728-28.909,14.728-40.909c0,0,15.272,22.909,21.272,37.636  C141.667,237.476,124.667,244.023,105.667,240.75z"/></svg>