<?xml version="1.0" ?><!DOCTYPE svg  PUBLIC '-//W3C//DTD SVG 1.1//EN'  'http://www.w3.org/Graphics/SVG/1.1/DTD/svg11.dtd'><svg enable-background="new 0 0 146.032 235.5" height="235.5" id="Layer_2" overflow="visible" version="1.1" viewBox="0 0 146.032 235.5" width="146.032" xml:space="preserve" xmlns="http://www.w3.org/2000/svg" xmlns:xlink="http://www.w3.org/1999/xlink"><g><g><path d="M145.057,68.205C138.624,34.102,116.147,0,73.495,0C9.88,0-0.275,68.762-0.275,68.762c0,0-8.381,40.526,21.791,76.488    c29,50,10,90.25,52.273,90.25c44.394,0,40.527-57.156,44.887-79.25C126.516,118.25,151.491,120.25,145.057,68.205z M18.876,97.58    c-8.54-6.544,0.831-18.351,11.23-31.92c10.404-13.57,17.899-23.765,26.438-17.222c8.537,6.546,9.903,25.056-0.5,38.626    C45.641,100.633,27.415,104.126,18.876,97.58z M92.516,185.25c0,16.5-7.65,30-17,30c-9.35,0-17-13.5-17-30v-16    c0-16.5,7.65-30,17-30c9.35,0,17,13.5,17,30V185.25z M124.793,101.28c-8.41,7.216-25.883,3.701-35.541-10.842    c-9.655-14.544-7.832-34.611,0.576-41.826c8.409-7.214,15.852,3.917,25.51,18.46C124.991,81.616,133.204,94.066,124.793,101.28z"/></g></g></svg>