<?xml version="1.0" ?><!DOCTYPE svg  PUBLIC '-//W3C//DTD SVG 1.1//EN'  'http://www.w3.org/Graphics/SVG/1.1/DTD/svg11.dtd'><svg enable-background="new 0 0 245 251.336" height="251.336" id="Layer_1" overflow="visible" version="1.1" viewBox="0 0 245 251.336" width="245" xml:space="preserve" xmlns="http://www.w3.org/2000/svg" xmlns:xlink="http://www.w3.org/1999/xlink"><path d="M237.5,177.836h-35.194c0.594-4.203,0.905-8.513,0.905-12.909c0-2.789-0.088-5.482-0.251-8.091h24.54  c4.143,0,7.5-3.357,7.5-7.5v-28h-15v20.5h-19.008c-10.214-49.625-53.116-59.234-70.637-61.078V0h-15v80.919  c-17.466,2.194-60.157,12.514-70.54,60.917H24v-20.5H9v28c0,4.143,3.358,7.5,7.5,7.5h26.264c-0.17,2.609-0.264,5.301-0.264,8.091  c0,4.396,0.312,8.706,0.905,12.909H7.5c-4.142,0-7.5,3.357-7.5,7.5v29h15v-21.5h31.878c2.661,8.215,6.457,15.839,11.206,22.664H46.5  c-4.142,0-7.5,3.357-7.5,7.5v28.336h15V230.5h17.466c13.931,12.211,31.843,19.5,51.39,19.5c19.546,0,37.458-7.289,51.389-19.5H191  v20.836h15V223c0-4.143-3.357-7.5-7.5-7.5h-10.873c4.749-6.825,8.545-14.449,11.205-22.664H230v24.5h15v-32  C245,181.194,241.643,177.836,237.5,177.836z M95,214.336c-8.561,0-15.5-6.939-15.5-15.5c0-8.56,6.939-15.5,15.5-15.5  s15.5,6.94,15.5,15.5C110.5,207.397,103.561,214.336,95,214.336z M151,214.336c-8.561,0-15.5-6.939-15.5-15.5  c0-8.56,6.939-15.5,15.5-15.5s15.5,6.94,15.5,15.5C166.5,207.397,159.561,214.336,151,214.336z"/></svg>